<svg width="25" height="25" viewBox="0 0 25 25" fill="none" xmlns="http://www.w3.org/2000/svg">
<path d="M10.231 24.5545H0V21.4851H10.231V24.5545ZM8.18482 16.3696H0V19.4389H8.18482V16.3696ZM6.13861 11.2541H0V14.3234H6.13861V11.2541ZM11.2541 6.13861V12.9126L14.7726 16.432L16.9436 14.261L14.3234 11.6419V6.13861H11.2541ZM12.2772 0C9.55901 0.00534378 6.91934 0.912173 4.77171 2.57844C2.62408 4.2447 1.08981 6.57627 0.409241 9.20792H3.61155C4.17521 7.61764 5.16521 6.21292 6.47333 5.14731C7.78145 4.08169 9.35734 3.39621 11.0287 3.16577C12.7002 2.93534 14.4027 3.16883 15.9504 3.84073C17.4981 4.51262 18.8312 5.59705 19.8042 6.97549C20.7771 8.35392 21.3524 9.97331 21.4671 11.6566C21.5819 13.3399 21.2316 15.0224 20.4547 16.5201C19.6777 18.0178 18.504 19.2731 17.0618 20.1487C15.6196 21.0244 13.9644 21.4867 12.2772 21.4851V24.5545C15.5333 24.5545 18.6561 23.261 20.9585 20.9585C23.261 18.6561 24.5545 15.5333 24.5545 12.2772C24.5545 9.0211 23.261 5.89834 20.9585 3.59592C18.6561 1.29349 15.5333 0 12.2772 0Z" fill="#44FF00"/>
</svg>
