<svg width="20" height="29" viewBox="0 0 20 29" fill="none" xmlns="http://www.w3.org/2000/svg">
<path d="M19.6435 9.42623C19.647 7.90352 19.2644 6.40277 18.5285 5.05292C17.7927 3.70308 16.7256 2.5445 15.419 1.67674C14.1124 0.808984 12.6053 0.257992 11.0272 0.0711087C9.44916 -0.115775 7.84731 0.0670381 6.35931 0.60384C4.87132 1.14064 3.54166 2.01538 2.4846 3.1529C1.42753 4.29041 0.674663 5.65669 0.290682 7.13434C-0.0932996 8.61199 -0.0969128 10.1568 0.280153 11.6361C0.657218 13.1154 1.40369 14.4849 2.45542 15.6269V25.2983C2.45541 25.852 2.61872 26.3944 2.92654 26.8632C3.23436 27.3319 3.67416 27.7078 4.1953 27.9476C4.71645 28.1874 5.29773 28.2814 5.87221 28.2187C6.44668 28.156 6.99099 27.9392 7.44243 27.5933L9.82176 25.7686L12.2011 27.5909C12.6524 27.9368 13.1964 28.1535 13.7707 28.2163C14.345 28.2791 14.9261 28.1853 15.4471 27.9458C15.9682 27.7062 16.408 27.3307 16.716 26.8623C17.024 26.3939 17.1876 25.8518 17.1881 25.2983V15.6269C18.7698 13.9165 19.6432 11.7109 19.6435 9.42623ZM9.82176 2.37197C11.2787 2.37197 12.7029 2.7857 13.9143 3.56083C15.1257 4.33596 16.0698 5.43769 16.6274 6.72668C17.1849 8.01568 17.3308 9.43406 17.0466 10.8024C16.7623 12.1708 16.0607 13.4278 15.0305 14.4143C14.0003 15.4009 12.6878 16.0728 11.2589 16.3449C9.82993 16.6171 8.34881 16.4774 7.00278 15.9435C5.65676 15.4096 4.5063 14.5054 3.69687 13.3454C2.88745 12.1853 2.45542 10.8214 2.45542 9.42623C2.45737 7.5559 3.23409 5.7627 4.61513 4.44018C5.99616 3.11766 7.86868 2.37384 9.82176 2.37197ZM14.3852 25.825C14.2813 25.8743 14.1648 25.8939 14.0496 25.8814C13.9344 25.8689 13.8254 25.8248 13.7357 25.7545L9.82176 22.7552L5.90901 25.7545C5.81892 25.8237 5.71026 25.8672 5.59551 25.88C5.48076 25.8928 5.36458 25.8742 5.26033 25.8266C5.15607 25.7789 5.06797 25.7041 5.00616 25.6106C4.94434 25.5172 4.91131 25.4089 4.91087 25.2983V17.5598C6.40128 18.3929 8.09604 18.8319 9.82176 18.8319C11.5475 18.8319 13.2422 18.3929 14.7327 17.5598V25.2983C14.734 25.4089 14.7019 25.5174 14.6403 25.6109C14.5786 25.7043 14.49 25.7787 14.3852 25.825Z" fill="#44FF00"/>
</svg>
